<svg width="0" height="0" class="hidden">
  <symbol xmlns="http://www.w3.org/2000/svg" viewBox="0 0 20 20" id="linkedin">
    <path d="M5 3c0 1.062-.71 1.976-2.001 1.976C1.784 4.976 1 4.114 1 3.052 1 1.962 1.76 1 3 1s1.976.91 2 2zM1 19V6h4v13H1zM7 10.444c0-1.545-.051-2.836-.102-3.951h3.594l.178 1.723h.076c.506-.811 1.746-2 3.822-2C17.1 6.216 19 7.911 19 11.558V19h-4v-6.861c0-1.594-.607-2.81-2-2.81-1.062 0-1.594.86-1.873 1.569-.102.254-.127.608-.127.963V19H7v-8.556z"></path>
  </symbol>
  <symbol xmlns="http://www.w3.org/2000/svg" viewBox="0 0 1052 1052" id="logo-javascript">
    <path fill="#f0db4f" d="M0 0h1052v1052H0z"></path>
    <path fill="#323330" d="M965.9 801.1c-7.7-48-39-88.3-131.7-125.9-32.2-14.8-68.1-25.399-78.8-49.8-3.8-14.2-4.3-22.2-1.9-30.8 6.9-27.9 40.2-36.6 66.6-28.6 17 5.7 33.1 18.801 42.8 39.7 45.4-29.399 45.3-29.2 77-49.399-11.6-18-17.8-26.301-25.4-34-27.3-30.5-64.5-46.2-124-45-10.3 1.3-20.699 2.699-31 4-29.699 7.5-58 23.1-74.6 44-49.8 56.5-35.6 155.399 25 196.1 59.7 44.8 147.4 55 158.6 96.9 10.9 51.3-37.699 67.899-86 62-35.6-7.4-55.399-25.5-76.8-58.4-39.399 22.8-39.399 22.8-79.899 46.1 9.6 21 19.699 30.5 35.8 48.7 76.2 77.3 266.899 73.5 301.1-43.5 1.399-4.001 10.6-30.801 3.199-72.101zm-394-317.6h-98.4c0 85-.399 169.4-.399 254.4 0 54.1 2.8 103.7-6 118.9-14.4 29.899-51.7 26.2-68.7 20.399-17.3-8.5-26.1-20.6-36.3-37.699-2.8-4.9-4.9-8.7-5.601-9-26.699 16.3-53.3 32.699-80 49 13.301 27.3 32.9 51 58 66.399 37.5 22.5 87.9 29.4 140.601 17.3 34.3-10 63.899-30.699 79.399-62.199 22.4-41.3 17.6-91.3 17.4-146.6.5-90.2 0-180.4 0-270.9z"></path>
  </symbol>
  <symbol xmlns="http://www.w3.org/2000/svg" preserveAspectRatio="xMinYMin meet" viewBox="0 0 256 252" id="mysql-6">
    <path fill="#00546B" d="M235.648 194.212c-13.918-.347-24.705 1.045-33.752 4.872-2.61 1.043-6.786 1.044-7.134 4.35 1.392 1.392 1.566 3.654 2.784 5.567 2.09 3.479 5.741 8.177 9.047 10.614 3.653 2.783 7.308 5.566 11.134 8.002 6.786 4.176 14.442 6.611 21.053 10.787 3.829 2.434 7.654 5.568 11.482 8.177 1.914 1.39 3.131 3.654 5.568 4.523v-.521c-1.219-1.567-1.567-3.828-2.784-5.568-1.738-1.74-3.48-3.306-5.22-5.046-5.045-6.784-11.308-12.7-18.093-17.571-5.567-3.828-17.747-9.047-20.008-15.485 0 0-.175-.173-.348-.347 3.827-.348 8.35-1.74 12.005-2.784 5.915-1.567 11.308-1.218 17.398-2.784 2.783-.696 5.567-1.566 8.35-2.436v-1.565c-3.13-3.132-5.392-7.307-8.698-10.265-8.873-7.657-18.617-15.137-28.707-21.4-5.394-3.48-12.354-5.742-18.095-8.699-2.086-1.045-5.567-1.566-6.784-3.306-3.133-3.827-4.873-8.872-7.134-13.396-5.044-9.57-9.917-20.182-14.267-30.272-3.13-6.786-5.044-13.572-8.872-19.834-17.92-29.577-37.406-47.497-67.33-65.07-6.438-3.653-14.093-5.219-22.27-7.132-4.348-.175-8.699-.522-13.048-.697-2.784-1.218-5.568-4.523-8.004-6.089C34.006 4.573 8.429-8.996 1.122 8.924c-4.698 11.308 6.96 22.442 10.96 28.185 2.96 4.001 6.786 8.524 8.874 13.048 1.218 2.956 1.565 6.09 2.783 9.221 2.785 7.653 5.393 16.18 9.048 23.314 1.914 3.653 4.001 7.48 6.437 10.786 1.392 1.913 3.827 2.784 4.35 5.915-2.435 3.48-2.61 8.7-4.003 13.049-6.263 19.66-3.826 44.017 5.046 58.457 2.783 4.348 9.395 13.92 18.268 10.265 7.83-3.131 6.09-13.048 8.35-21.747.524-2.09.176-3.48 1.219-4.872v.349c2.436 4.87 4.871 9.569 7.133 14.44 5.394 8.524 14.788 17.398 22.617 23.314 4.177 3.13 7.482 8.524 12.702 10.438v-.523h-.349c-1.044-1.566-2.61-2.261-4.001-3.48-3.131-3.13-6.612-6.958-9.047-10.438-7.306-9.744-13.745-20.53-19.486-31.665-2.783-5.392-5.22-11.308-7.481-16.701-1.045-2.09-1.045-5.22-2.784-6.263-2.61 3.827-6.437 7.133-8.351 11.83-3.304 7.481-3.653 16.702-4.871 26.27-.696.176-.349 0-.697.35-5.566-1.394-7.48-7.134-9.569-12.006-5.22-12.352-6.09-32.186-1.565-46.452 1.218-3.654 6.438-15.136 4.35-18.616-1.044-3.306-4.525-5.22-6.438-7.829-2.261-3.306-4.698-7.48-6.263-11.135-4.176-9.743-6.264-20.53-10.787-30.273-2.088-4.524-5.74-9.22-8.699-13.396-3.305-4.697-6.959-8.004-9.569-13.571-.869-1.913-2.088-5.045-.696-7.133.348-1.392 1.043-1.913 2.436-2.261 2.262-1.915 8.7.521 10.96 1.565 6.438 2.608 11.831 5.046 17.225 8.699 2.435 1.74 5.045 5.046 8.176 5.916h3.654c5.568 1.217 11.83.348 17.05 1.913 9.222 2.957 17.572 7.307 25.054 12.005 22.792 14.44 41.58 34.97 54.282 59.501 2.088 4 2.957 7.656 4.871 11.83 3.655 8.526 8.178 17.225 11.83 25.576 3.654 8.176 7.133 16.528 12.353 23.314 2.61 3.652 13.048 5.567 17.746 7.481 3.48 1.565 8.874 2.958 12.005 4.871 5.915 3.652 11.83 7.83 17.398 11.83 2.784 2.088 11.482 6.438 12.005 9.917z"></path>
    <path fill="#00546B" d="M58.186 43.022c-2.957 0-5.044.35-7.132.871v.348h.348c1.393 2.784 3.827 4.698 5.566 7.133 1.393 2.783 2.61 5.568 4.003 8.352.173-.175.347-.348.347-.348 2.437-1.741 3.654-4.524 3.654-8.7-1.044-1.217-1.218-2.435-2.088-3.653-1.043-1.741-3.306-2.61-4.698-4.003z"></path>
  </symbol>
  <symbol xmlns="http://www.w3.org/2000/svg" preserveAspectRatio="xMinYMin meet" viewBox="0 0 256 134" id="php-1">
    <g fill-rule="evenodd">
      <ellipse cx="128" cy="66.63" fill="#8993BE" rx="128" ry="66.63"></ellipse>
      <path fill="#232531" d="m35.945 106.082 14.028-71.014H82.41c14.027.877 21.041 7.89 21.041 20.165 0 21.041-16.657 33.315-31.562 32.438H56.11l-3.507 18.411H35.945zm23.671-31.561L64 48.219h11.397c6.137 0 10.52 2.63 10.52 7.89-.876 14.905-7.89 17.535-15.78 18.412h-10.52zm40.576 13.15 14.027-71.013h16.658l-3.507 18.41h15.78c14.028.877 19.288 7.89 17.535 16.658l-6.137 35.945h-17.534l6.137-32.438c.876-4.384.876-7.014-5.26-7.014H124.74l-7.89 39.452h-16.658zm53.233 18.411 14.027-71.014h32.438c14.028.877 21.042 7.89 21.042 20.165 0 21.041-16.658 33.315-31.562 32.438h-15.781l-3.507 18.411h-16.657zm23.67-31.561 4.384-26.302h11.398c6.137 0 10.52 2.63 10.52 7.89-.876 14.905-7.89 17.535-15.78 18.412h-10.521z"></path>
    </g>
  </symbol>
  <symbol xmlns="http://www.w3.org/2000/svg" preserveAspectRatio="xMidYMid" viewBox="0 0 256 153.6" id="tailwindcss">
    <linearGradient id="a" x1="-2.778%" y1="32%" y2="67.556%">
      <stop offset="0" stop-color="#2298bd"></stop>
      <stop offset="1" stop-color="#0ed7b5"></stop>
    </linearGradient>
    <path fill="url(#a)" d="M128 0C93.867 0 72.533 17.067 64 51.2 76.8 34.133 91.733 27.733 108.8 32c9.737 2.434 16.697 9.499 24.401 17.318C145.751 62.057 160.275 76.8 192 76.8c34.133 0 55.467-17.067 64-51.2-12.8 17.067-27.733 23.467-44.8 19.2-9.737-2.434-16.697-9.499-24.401-17.318C174.249 14.743 159.725 0 128 0zM64 76.8C29.867 76.8 8.533 93.867 0 128c12.8-17.067 27.733-23.467 44.8-19.2 9.737 2.434 16.697 9.499 24.401 17.318C81.751 138.857 96.275 153.6 128 153.6c34.133 0 55.467-17.067 64-51.2-12.8 17.067-27.733 23.467-44.8 19.2-9.737-2.434-16.697-9.499-24.401-17.318C110.249 91.543 95.725 76.8 64 76.8z"></path>
  </symbol>
  <symbol xmlns="http://www.w3.org/2000/svg" preserveAspectRatio="xMidYMid" viewBox="-38.4 -38.096 332.801 228.579" id="WooCommerce-Logo.wine">
    <path fill="#9B5C8F" d="M23.758 0h208.38C245.325 0 256 10.675 256 23.863v79.542c0 13.187-10.675 23.863-23.863 23.863H157.41l10.257 25.118-45.11-25.118H23.865C10.677 127.268 0 116.593 0 103.405V23.863C-.104 10.78 10.57 0 23.759 0z"></path>
    <path fill="#fff" d="M14.577 21.75c1.457-1.977 3.642-3.018 6.556-3.226 5.307-.416 8.325 2.081 9.054 7.493 3.226 21.75 6.764 40.169 10.51 55.259l22.79-43.395c2.082-3.955 4.683-6.036 7.805-6.244 4.58-.312 7.39 2.601 8.534 8.741 2.601 13.841 5.931 25.6 9.886 35.59 2.706-26.433 7.285-45.476 13.737-57.236 1.561-2.913 3.85-4.37 6.868-4.579 2.394-.208 4.58.52 6.556 2.082 1.978 1.56 3.018 3.538 3.226 5.931.104 1.874-.208 3.434-1.04 4.995-4.059 7.493-7.389 20.085-10.094 37.567-2.602 16.964-3.539 30.18-2.914 39.65.208 2.601-.208 4.89-1.249 6.868-1.249 2.29-3.122 3.538-5.515 3.746-2.706.208-5.516-1.04-8.221-3.85-9.678-9.886-17.38-24.663-22.998-44.332-6.765 13.32-11.76 23.31-14.985 29.97-6.14 11.76-11.343 17.796-15.714 18.108-2.81.208-5.204-2.186-7.285-7.18-5.307-13.634-11.031-39.962-17.171-78.986-.416-2.705.208-5.099 1.665-6.972zm223.64 16.338c-3.747-6.556-9.262-10.511-16.65-12.072-1.977-.416-3.85-.624-5.62-.624-9.99 0-18.107 5.203-24.455 15.61-5.411 8.845-8.117 18.628-8.117 29.346 0 8.013 1.665 14.88 4.995 20.605 3.747 6.556 9.262 10.51 16.65 12.072 1.977.416 3.85.624 5.62.624 10.094 0 18.21-5.203 24.455-15.61 5.411-8.95 8.117-18.732 8.117-29.45.104-8.117-1.665-14.881-4.995-20.501zm-13.112 28.826c-1.457 6.868-4.059 11.967-7.91 15.402-3.017 2.706-5.827 3.85-8.428 3.33-2.498-.52-4.58-2.706-6.14-6.764-1.249-3.226-1.873-6.452-1.873-9.47 0-2.602.208-5.203.728-7.597.937-4.266 2.706-8.429 5.515-12.384 3.435-5.099 7.077-7.18 10.823-6.452 2.498.52 4.58 2.706 6.14 6.765 1.249 3.226 1.873 6.452 1.873 9.47 0 2.705-.208 5.307-.728 7.7zm-52.033-28.826c-3.747-6.556-9.366-10.511-16.65-12.072-1.977-.416-3.85-.624-5.62-.624-9.99 0-18.107 5.203-24.455 15.61-5.411 8.845-8.117 18.628-8.117 29.346 0 8.013 1.665 14.88 4.995 20.605 3.747 6.556 9.262 10.51 16.65 12.072 1.977.416 3.85.624 5.62.624 10.094 0 18.21-5.203 24.455-15.61 5.411-8.95 8.117-18.732 8.117-29.45 0-8.117-1.665-14.881-4.995-20.501zm-13.216 28.826c-1.457 6.868-4.059 11.967-7.91 15.402-3.017 2.706-5.827 3.85-8.428 3.33-2.498-.52-4.58-2.706-6.14-6.764-1.249-3.226-1.873-6.452-1.873-9.47 0-2.602.208-5.203.728-7.597.937-4.266 2.706-8.429 5.515-12.384 3.435-5.099 7.077-7.18 10.823-6.452 2.498.52 4.58 2.706 6.14 6.765 1.249 3.226 1.873 6.452 1.873 9.47.104 2.705-.208 5.307-.728 7.7z"></path>
  </symbol>
  <symbol xmlns="http://www.w3.org/2000/svg" viewBox="-18.379 -30.631 159.285 183.785" id="WordPress.com-Logo.wine">
    <g fill="#21759b">
      <path d="M8.708 61.26c0 20.802 12.089 38.779 29.619 47.298L13.258 39.872a52.354 52.354 0 0 0-4.55 21.388zm88.032-2.652c0-6.495-2.333-10.993-4.334-14.494-2.664-4.329-5.161-7.995-5.161-12.324 0-4.831 3.664-9.328 8.825-9.328.233 0 .454.029.681.042-9.35-8.566-21.807-13.796-35.489-13.796-18.36 0-34.513 9.42-43.91 23.688 1.233.037 2.395.063 3.382.063 5.497 0 14.006-.667 14.006-.667 2.833-.167 3.167 3.994.337 4.329 0 0-2.847.335-6.015.501L48.2 93.547l11.501-34.493-8.188-22.434c-2.83-.166-5.511-.501-5.511-.501-2.832-.166-2.5-4.496.332-4.329 0 0 8.679.667 13.843.667 5.496 0 14.006-.667 14.006-.667 2.835-.167 3.168 3.994.337 4.329 0 0-2.853.335-6.015.501l18.992 56.494 5.242-17.517c2.272-7.269 4.001-12.49 4.001-16.989z"></path>
      <path d="m62.184 65.857-15.768 45.819a52.552 52.552 0 0 0 14.846 2.141c6.12 0 11.989-1.058 17.452-2.979a4.615 4.615 0 0 1-.374-.724zm45.192-29.811c.226 1.674.354 3.471.354 5.404 0 5.333-.996 11.328-3.996 18.824l-16.053 46.413c15.624-9.111 26.133-26.038 26.133-45.426.001-9.137-2.333-17.729-6.438-25.215z"></path>
      <path d="M61.262 0C27.483 0 0 27.481 0 61.26c0 33.783 27.483 61.263 61.262 61.263 33.778 0 61.265-27.48 61.265-61.263C122.526 27.481 95.04 0 61.262 0zm0 119.715c-32.23 0-58.453-26.223-58.453-58.455 0-32.23 26.222-58.451 58.453-58.451 32.229 0 58.45 26.221 58.45 58.451 0 32.232-26.221 58.455-58.45 58.455z"></path>
    </g>
  </symbol>
  <symbol xmlns="http://www.w3.org/2000/svg" viewBox="0 0 20 20" id="eye">
    <path d="M10 4.4C3.439 4.4 0 9.232 0 10c0 .766 3.439 5.6 10 5.6s10-4.834 10-5.6c0-.768-3.44-5.6-10-5.6zm0 9.907c-2.455 0-4.445-1.928-4.445-4.307S7.545 5.691 10 5.691s4.444 1.93 4.444 4.309-1.989 4.307-4.444 4.307zM10 10c-.407-.447.663-2.154 0-2.154-1.228 0-2.223.965-2.223 2.154s.995 2.154 2.223 2.154c1.227 0 2.223-.965 2.223-2.154 0-.547-1.877.379-2.223 0z"></path>
  </symbol>
  <symbol xmlns="http://www.w3.org/2000/svg" viewBox="0 0 20 20" id="github">
    <path d="M13.18 11.309c-.718 0-1.3.807-1.3 1.799 0 .994.582 1.801 1.3 1.801s1.3-.807 1.3-1.801c-.001-.992-.582-1.799-1.3-1.799zm4.526-4.683c.149-.365.155-2.439-.635-4.426 0 0-1.811.199-4.551 2.08-.575-.16-1.548-.238-2.519-.238-.973 0-1.945.078-2.52.238C4.74 2.399 2.929 2.2 2.929 2.2c-.789 1.987-.781 4.061-.634 4.426C1.367 7.634.8 8.845.8 10.497c0 7.186 5.963 7.301 7.467 7.301l1.734.002 1.732-.002c1.506 0 7.467-.115 7.467-7.301 0-1.652-.566-2.863-1.494-3.871zm-7.678 10.289h-.056c-3.771 0-6.709-.449-6.709-4.115 0-.879.31-1.693 1.047-2.369C5.537 9.304 7.615 9.9 9.972 9.9h.056c2.357 0 4.436-.596 5.664.531.735.676 1.045 1.49 1.045 2.369 0 3.666-2.937 4.115-6.709 4.115zm-3.207-5.606c-.718 0-1.3.807-1.3 1.799 0 .994.582 1.801 1.3 1.801s1.301-.807 1.301-1.801c0-.992-.582-1.799-1.301-1.799z"></path>
  </symbol>
</svg>